<?xml version="1.0" encoding="utf-8"?>
<!-- Generator: Adobe Illustrator 19.0.0, SVG Export Plug-In . SVG Version: 6.00 Build 0)  -->
<svg version="1.1" id="图层_1" xmlns="http://www.w3.org/2000/svg" xmlns:xlink="http://www.w3.org/1999/xlink" x="0px" y="0px"
	 viewBox="0 0 1212.3 114.3" style="enable-background:new 0 0 1212.3 114.3;" xml:space="preserve">
<style type="text/css">
	.st0{fill:#FFFFFF;}
</style>
<path class="st0" d="M595.5,15.5h58.3V4.1h-58.3V15.5z M637.6,71.4h-9.3l-3.5,17.1h-0.5l-3.5-17.1h-9.3l3.5,17.1h-4.4v8.9h8.6V113
	h10.7V97.4h8.6v-8.9h-4.4L637.6,71.4z M599.2,21.5v28.7H650V21.5L599.2,21.5z M638.1,40h-27v-8.3h27V40z M595.5,113h11.9V66.3h34.4
	V113h11.9v-57h-58.2V113z M706.3,87.9H696l1,14.4h-9.5V75h18.9V15.7h-18.9V1.7h-10.7v14.1h-18V75h18v27.3h-18v10.8h49.2L706.3,87.9z
	 M687.5,27.1h8.2v37h-8.2V27.1z M676.8,64.2h-7.3v-37h7.3V64.2z M381.5,79.2h20.3v15.3h11.9V79.2h20.3v15.3H446V29.1h-21.1l1.9-1.1
	c5.5-3.2,10.9-6.7,15.6-10.5l0.2-0.1V4.1h-71v11.4h55.8l-1.7,1c-7.8,5-16.2,9.1-25.1,12l-1.8,0.5l-1.9-7.9h-12.9l1.9,7.9h-16.2v65.4
	h11.9V79.2z M413.8,39.3h20.3v10.1h-20.3V39.3z M413.8,59.6h20.3V69h-20.3V59.6z M381.5,39.3h20.3v10.1h-20.3V39.3z M381.5,59.6
	h20.3V69h-20.3V59.6z M354.6,29.9l-4.8-25.7H337l4.8,25.7H354.6z M359.3,90.2V49.4h-24.9v11.4h13l0,28.2c-1.3,4.1-3.3,7.3-6.1,9.4
	c-1.8,1.4-3.9,2.4-6.5,3.1l-0.4,0.1v11.6l0.6-0.1c6.4-1.2,11.8-3.7,15.7-7.4l0.5-0.4l0.4,0.5c5.2,6.6,13.8,7.4,19.8,7.4l1.9,0l0.8,0
	h77.4v-11.7h-74.8C364.2,101.4,359.3,98.3,359.3,90.2 M562.8,84.6H550l-3.4,17.1h-17.9V73.4h47.1v-11h-47.1V49h30.4V38.3h-72.8V49
	h30.4v13.5h-47.1v11h47.1v28.2h-18l-3.4-17.1h-12.9l3.4,17.1h-20.4v11.4h114v-11.4h-20L562.8,84.6z M297.9,16.8h18.9V4H205.7v12.7
	h20.6V51h-22.2v12.7h22.3c0,0,0,6.9-0.1,9.3c-0.8,17.8-15.3,27.2-20.2,28.3v13c0.4-0.1,32.4-6.3,33.6-44c0-1.4,0.2-6.5,0.2-6.5h44.5
	v49.4h13.4V63.7h20.4V51h-20.4V16.8z M284.5,51h-44.7V16.8h44.7V51z M522,14l0.4-0.4v0l0.4,0.3C536,26.1,560.3,37.2,578,40.8
	l1.3,0.2V28.2l-0.9-0.2c-17.2-3.9-38.3-14.5-50-26.3l-0.3-0.3h-5.8v0h-5.8l-0.3,0.3c-11.7,11.8-32.7,22.4-50,26.3l-0.9,0.2V41
	l1.3-0.3C484.5,37.2,508.8,26,522,14"/>
<path class="st0" d="M103.5,0L65,56.5l38.5,56.4h60.2V0H103.5z M0,112.9h60.2V0H0V112.9z"/>
<g>
	<path class="st0" d="M821.3,7h-66.4l0.1,102.7h23.8V76.9h42.5c26.6,0,32.2-13.1,32.2-24.2V31.2C853.5,20.1,847.9,7,821.3,7z
		 M778.8,28h40.3c10.6,0,10.6,1.8,10.6,6.6v14.8c0,4.8,0,6.6-10.6,6.6h-40.3V28z"/>
	<path class="st0" d="M1063.9,90.6c-0.3-0.1-0.7-0.4-1.3-1.4c-8.6-15.4-17.3-30.7-26.1-46.1c-6.1-10.7-12.1-21.3-18.1-32
		c-1.4-2.4-3.2-3.5-6.1-3.5h0c-2.3,0.1-4.7,0.1-7,0.1l-22.6,0v101.8h21.5V26.7c0.2,0.1,0.6,0.4,1.1,1.3c7.3,13,14.7,25.9,22,38.9
		c7.4,13,14.7,25.9,22.1,38.9c1.5,2.7,3.5,3.8,6.5,3.8h0.3c3.1-0.1,6.1-0.1,9.2-0.1l20,0V7.8h-21.5V90.6z M1055.8,107.2
		L1055.8,107.2L1055.8,107.2L1055.8,107.2z"/>
	<path class="st0" d="M1212.3,60.3l-0.1-2.5c-0.1-2.9-0.2-5.8-0.2-8.7c-0.1-6.7-0.3-13.6-1-20.4c-1.1-10.2-7.5-17.6-18.1-20.6
		c-4.2-1.2-8.5-1.9-12.4-1.9c-12.4-0.2-30.2-0.3-42.5,0c-19.2,0.4-30.6,9.6-31.1,25.4c-0.6,17.3-0.6,35.1,0,52.8
		c0.5,14.7,11.6,24.5,28.3,24.9c7.5,0.2,20.4,0.4,27.9,0.4c7.2,0,13.8-0.1,20-0.4c15.5-0.7,24.5-7.5,27.7-20.7
		c0.6-2.6,0.9-5.3,1-8.1c0.1-5.4,0.1-10.9,0.1-16.3l0-3.8L1212.3,60.3z M1128.9,55.3L1128.9,55.3l0-3.3c0-5.2,0-10.4,0-15.6
		c0-1.5,0.2-3.1,0.6-5c0.6-2.9,1.9-4.9,6.6-5.7c2.1-0.3,4.3-0.5,6.5-0.5c9.1-0.1,23.6-0.1,32.7,0c1.8,0,3.7,0.2,5.9,0.5
		c5.5,0.8,6.9,2.9,7.5,6.5c0.4,2.3,0.5,4.1,0.5,5.7c0.1,13.3,0.1,26.5,0,39.8c0,2-0.2,4.2-0.6,6.6c-0.7,4-3.6,6.1-8.7,6.2
		c-6.2,0.1-17.8,0.2-24,0.2h0c-6.1,0-12.2-0.1-18.3-0.2c-6-0.1-8.6-2.8-8.8-8.9c-0.1-5.5-0.1-11-0.1-16.4l0-7.2L1128.9,55.3z"/>
	<path class="st0" d="M969.5,104.9l-8.9-22.1c-9.6-23.8-19.1-47.7-28.7-71.5c-1.3-3.2-3.8-3.5-5.7-3.5h0c-8.3,0.1-16.3,0.1-25.2,0
		c-3.6,0-5.7,1.4-7,4.6c-8.5,21.3-17,42.5-25.6,63.7l-13.5,33.6h23.5l2.7-6.6c1.8-4.3,3.5-8.6,5.1-12.9c0.2-0.5,0.3-0.6,0.3-0.6
		c0,0,0.2-0.1,1.2-0.1h0c16.9,0.1,33.7,0.1,50.7,0c1.2,0,1.2,0.1,1.6,1c2.4,6.2,4.4,11.1,6.4,15.7c0.7,1.6,2.7,3.4,4.7,3.5
		c2.7,0.1,5.4,0.1,8.1,0.1l11.8,0l-1.2-3.8C969.7,105.4,969.6,105.1,969.5,104.9z M931.8,70.2h-37.6l9.8-24.6
		c2.1-5.2,4.1-10.4,6.2-15.6c1.2-3.2,1.2-3.2,3.1-3.2c0.4,0,0.8,0,1.2,0L931.8,70.2z"/>
</g>
</svg>
