<svg id="图层_1" xmlns="http://www.w3.org/2000/svg" viewBox="0 0 444.3 41.9"><style>.st0{fill:#47454e}.st1{fill:#4380dd}</style><path id="XMLID_47_" class="st0" d="M218.2 5.7h21.4V1.5h-21.4v4.2zm15.5 20.5h-3.4l-1.3 6.3h-.2l-1.3-6.3h-3.4l1.3 6.3h-1.6v3.3h3.2v5.7h3.9v-5.7h3.2v-3.3h-1.6l1.2-6.3zM219.6 7.9v10.5h18.6V7.9h-18.6zm14.3 6.8H224v-3h9.9v3zm-15.6 26.7h4.4V24.3h12.6v17.1h4.4V20.6h-21.3v20.8zm40.6-9.2h-3.8l.4 5.3H252v-10h6.9V5.8H252V.6h-4v5.2h-6.6v21.7h6.6v10h-6.6v3.9h18.1l-.6-9.2zM252 9.9h3v13.6h-3V9.9zm-4 13.6h-2.7V9.9h2.7v13.6zM139.8 29h7.5v5.6h4.4V29h7.5v5.6h4.4v-24h-7.7l.7-.4c2-1.2 4-2.5 5.7-3.9l.1-.1V1.5h-26v4.2h20.5l-.9.4c-2.8 1.9-5.9 3.3-9.2 4.4l-.7.2-.7-2.9h-4.7l.7 2.9h-5.9v24h4.4V29zm11.9-14.6h7.5v3.7h-7.5v-3.7zm0 7.5h7.5v3.4h-7.5v-3.4zm-11.9-7.5h7.5v3.7h-7.5v-3.7zm0 7.5h7.5v3.4h-7.5v-3.4zM130 11l-1.7-9.4h-4.7l1.8 9.4h4.6zm1.7 22.1v-15h-9.1v4.2h4.8v10.3c-.5 1.5-1.2 2.7-2.2 3.4-.7.5-1.4.9-2.4 1.1h-.1v4.3h.2c2.4-.4 4.3-1.3 5.8-2.7l.2-.2.1.2c1.9 2.4 5 2.7 7.2 2.7h29.4v-4.3H138c-4.5.1-6.3-1.1-6.3-4m74.6-2.1h-4.7l-1.3 6.3h-6.6V26.9H211v-4h-17.3V18h11.2v-4h-26.7v4h11.2v4.9h-17.3v4h17.3v10.4h-6.6l-1.3-6.3h-4.7l1.2 6.3h-7.5v4.2h41.8v-4.2H205l1.3-6.3zM109.2 6.2h6.9V1.5H75.4v4.7H83v12.5h-8.1v4.7H83s0 2.5-.1 3.4c-.3 6.5-5.6 10-7.4 10.4V42c.1 0 11.9-2.3 12.3-16.1 0-.5.1-2.4.1-2.4h16.3v18.1h4.9V23.3h7.5v-4.7h-7.5V6.2zm-4.9 12.5H87.9V6.2h16.4v12.5zm87-13.6l.1-.1.2.1c4.8 4.4 13.7 8.5 20.2 9.8l.5.1v-4.7l-.3-.1c-6.3-1.4-14-5.3-18.3-9.6l-.1-.1h-4.2l-.1.1c-4.3 4.3-12 8.2-18.3 9.6l-.3.1V15l.5-.1c6.4-1.3 15.3-5.4 20.1-9.8"/><path id="XMLID_44_" class="st1" d="M37.9 0L23.8 20.7l14.1 20.7H60V0H37.9zM0 41.4h22.1V0H0v41.4z"/><g id="XMLID_31_"><path id="XMLID_41_" class="st0" d="M301 2.6h-24.3v37.6h8.7v-12H301c9.7 0 11.8-4.8 11.8-8.9v-7.9c0-4-2-8.8-11.8-8.8zm-15.6 7.6h14.8c3.9 0 3.9.7 3.9 2.4V18c0 1.8 0 2.4-3.9 2.4h-14.8V10.2z"/><path id="XMLID_38_" class="st0" d="M389.9 33.2c-.1 0-.3-.2-.5-.5-3.2-5.6-6.4-11.3-9.5-16.9l-6.6-11.7c-.5-.9-1.2-1.3-2.2-1.3h-10.9v37.3h7.9V9.8c.1 0 .2.2.4.5 2.7 4.8 5.4 9.5 8.1 14.2 2.7 4.8 5.4 9.5 8.1 14.3.6 1 1.3 1.4 2.4 1.4h10.8V2.9H390v30.3zm-2.9 6.1z"/><path id="XMLID_35_" class="st0" d="M444.3 22.1v-.9c0-1.1-.1-2.1-.1-3.2-.1-2.4-.1-5-.4-7.5-.4-3.8-2.8-6.4-6.6-7.5-1.5-.4-3.1-.7-4.5-.7-4.5-.1-11.1-.1-15.6 0-7.1.1-11.2 3.5-11.4 9.3-.2 6.3-.2 12.9 0 19.3.2 5.4 4.2 9 10.4 9.1 2.7.1 7.5.1 10.2.1 2.7 0 5.1-.1 7.3-.2 5.7-.3 9-2.8 10.1-7.6.2-1 .3-1.9.4-3v-7.4l.2.2zm-30.5-1.8v-6.9c0-.5.1-1.1.2-1.9.2-1.1.7-1.8 2.4-2.1.8-.1 1.6-.2 2.4-.2h12c.7 0 1.4.1 2.2.2 2 .3 2.5 1.1 2.7 2.4.1.9.2 1.5.2 2.1v14.6c0 .7-.1 1.5-.2 2.4-.2 1.5-1.3 2.2-3.2 2.3-2.3 0-6.5.1-8.8.1-2.2 0-4.5 0-6.7-.1-2.2 0-3.2-1-3.2-3.3v-9.6z"/><path id="XMLID_32_" class="st0" d="M355.3 38.4l-3.3-8.1c-3.5-8.7-7-17.5-10.5-26.2-.5-1.2-1.4-1.3-2.1-1.3h-9.2c-1.3 0-2.1.5-2.6 1.7-3.1 7.8-6.2 15.6-9.4 23.4l-4.9 12.3h8.6l1-2.4c.6-1.6 1.3-3.1 1.9-4.7l.1-.2h19c.4 0 .4 0 .6.4.9 2.3 1.6 4.1 2.4 5.8.3.6 1 1.3 1.7 1.3h7.3l-.5-1.4c0-.4 0-.5-.1-.6zm-13.8-12.7h-13.8l3.6-9c.8-1.9 1.5-3.8 2.3-5.7.5-1.2.5-1.2 1.1-1.2h.4l6.4 15.9z"/></g></svg>