<svg id="图层_1" xmlns="http://www.w3.org/2000/svg" viewBox="0 0 1212.3 114.3"><style>.st0{fill:#fff}</style><path class="st0" d="M595.5 15.5h58.3V4.1h-58.3v11.4zm42.1 55.9h-9.3l-3.5 17.1h-.5l-3.5-17.1h-9.3l3.5 17.1h-4.4v8.9h8.6V113h10.7V97.4h8.6v-8.9h-4.4l3.5-17.1zm-38.4-49.9v28.7H650V21.5h-50.8zM638.1 40h-27v-8.3h27V40zm-42.6 73h11.9V66.3h34.4V113h11.9V56h-58.2v57zm110.8-25.1H696l1 14.4h-9.5V75h18.9V15.7h-18.9v-14h-10.7v14.1h-18V75h18v27.3h-18v10.8H708l-1.7-25.2zm-18.8-60.8h8.2v37h-8.2v-37zm-10.7 37.1h-7.3v-37h7.3v37zm-295.3 15h20.3v15.3h11.9V79.2H434v15.3h12V29.1h-21.1l1.9-1.1c5.5-3.2 10.9-6.7 15.6-10.5l.2-.1V4.1h-71v11.4h55.8l-1.7 1c-7.8 5-16.2 9.1-25.1 12l-1.8.5-1.9-7.9H384l1.9 7.9h-16.2v65.4h11.9V79.2zm32.3-39.9h20.3v10.1h-20.3V39.3zm0 20.3h20.3V69h-20.3v-9.4zm-32.3-20.3h20.3v10.1h-20.3V39.3zm0 20.3h20.3V69h-20.3v-9.4zm-26.9-29.7l-4.8-25.7H337l4.8 25.7h12.8zm4.7 60.3V49.4h-24.9v11.4h13V89c-1.3 4.1-3.3 7.3-6.1 9.4-1.8 1.4-3.9 2.4-6.5 3.1l-.4.1v11.6l.6-.1c6.4-1.2 11.8-3.7 15.7-7.4l.5-.4.4.5c5.2 6.6 13.8 7.4 19.8 7.4h80.1v-11.7h-74.8c-12.5-.1-17.4-3.2-17.4-11.3m203.5-5.6H550l-3.4 17.1h-17.9V73.4h47.1v-11h-47.1V49h30.4V38.3h-72.8V49h30.4v13.5h-47.1v11h47.1v28.2h-18l-3.4-17.1h-12.9l3.4 17.1h-20.4v11.4h114v-11.4h-20l3.4-17.1zM297.9 16.8h18.9V4H205.7v12.7h20.6V51h-22.2v12.7h22.3s0 6.9-.1 9.3c-.8 17.8-15.3 27.2-20.2 28.3v13c.4-.1 32.4-6.3 33.6-44 0-1.4.2-6.5.2-6.5h44.5v49.4h13.4V63.7h20.4V51h-20.4V16.8zM284.5 51h-44.7V16.8h44.7V51zM522 14l.4-.4.4.3C536 26.1 560.3 37.2 578 40.8l1.3.2V28.2l-.9-.2c-17.2-3.9-38.3-14.5-50-26.3l-.3-.3h-11.6l-.3.3c-11.7 11.8-32.7 22.4-50 26.3l-.9.2V41l1.3-.3C484.5 37.2 508.8 26 522 14M103.5 0L65 56.5l38.5 56.4h60.2V0h-60.2zM0 112.9h60.2V0H0v112.9zM821.3 7h-66.4l.1 102.7h23.8V76.9h42.5c26.6 0 32.2-13.1 32.2-24.2V31.2c0-11.1-5.6-24.2-32.2-24.2zm-42.5 21h40.3c10.6 0 10.6 1.8 10.6 6.6v14.8c0 4.8 0 6.6-10.6 6.6h-40.3V28zm285.1 62.6c-.3-.1-.7-.4-1.3-1.4-8.6-15.4-17.3-30.7-26.1-46.1-6.1-10.7-12.1-21.3-18.1-32-1.4-2.4-3.2-3.5-6.1-3.5-2.3.1-4.7.1-7 .1h-22.6v101.8h21.5V26.7c.2.1.6.4 1.1 1.3 7.3 13 14.7 25.9 22 38.9 7.4 13 14.7 25.9 22.1 38.9 1.5 2.7 3.5 3.8 6.5 3.8h.3c3.1-.1 6.1-.1 9.2-.1h20V7.8h-21.5v82.8zm-8.1 16.6zm156.5-46.9l-.1-2.5c-.1-2.9-.2-5.8-.2-8.7-.1-6.7-.3-13.6-1-20.4-1.1-10.2-7.5-17.6-18.1-20.6-4.2-1.2-8.5-1.9-12.4-1.9-12.4-.2-30.2-.3-42.5 0-19.2.4-30.6 9.6-31.1 25.4-.6 17.3-.6 35.1 0 52.8.5 14.7 11.6 24.5 28.3 24.9 7.5.2 20.4.4 27.9.4 7.2 0 13.8-.1 20-.4 15.5-.7 24.5-7.5 27.7-20.7.6-2.6.9-5.3 1-8.1.1-5.4.1-10.9.1-16.3v-3.8l.4-.1zm-83.4-5V36.4c0-1.5.2-3.1.6-5 .6-2.9 1.9-4.9 6.6-5.7 2.1-.3 4.3-.5 6.5-.5 9.1-.1 23.6-.1 32.7 0 1.8 0 3.7.2 5.9.5 5.5.8 6.9 2.9 7.5 6.5.4 2.3.5 4.1.5 5.7.1 13.3.1 26.5 0 39.8 0 2-.2 4.2-.6 6.6-.7 4-3.6 6.1-8.7 6.2-6.2.1-17.8.2-24 .2-6.1 0-12.2-.1-18.3-.2-6-.1-8.6-2.8-8.8-8.9-.1-5.5-.1-11-.1-16.4V58l.2-2.7zm-159.4 49.6l-8.9-22.1C951 59 941.5 35.1 931.9 11.3c-1.3-3.2-3.8-3.5-5.7-3.5-8.3.1-16.3.1-25.2 0-3.6 0-5.7 1.4-7 4.6-8.5 21.3-17 42.5-25.6 63.7l-13.5 33.6h23.5l2.7-6.6c1.8-4.3 3.5-8.6 5.1-12.9.2-.5.3-.6.3-.6s.2-.1 1.2-.1c16.9.1 33.7.1 50.7 0 1.2 0 1.2.1 1.6 1 2.4 6.2 4.4 11.1 6.4 15.7.7 1.6 2.7 3.4 4.7 3.5 2.7.1 5.4.1 8.1.1H971l-1.2-3.8c-.1-.6-.2-.9-.3-1.1zm-37.7-34.7h-37.6l9.8-24.6c2.1-5.2 4.1-10.4 6.2-15.6 1.2-3.2 1.2-3.2 3.1-3.2h1.2l17.3 43.4z"/></svg>