<svg id="图层_1" xmlns="http://www.w3.org/2000/svg" viewBox="213 11.4 526.4 49.6"><style>.st0{fill:#fff}.st1{fill:#4380dd}</style><path class="st0" d="M471.5 18.1h25.3v-4.9h-25.3v4.9zm18.3 24.3h-4l-1.5 7.4h-.2l-1.5-7.4h-4l1.5 7.4h-1.9v3.9h3.7v6.8h4.6v-6.8h3.7v-3.9h-1.9l1.5-7.4zm-16.7-21.7v12.5h22.1V20.7h-22.1zm17 8.1h-11.7v-3.6h11.7v3.6zm-18.6 31.7h5.2V40.2h14.9v20.3h5.2V35.8h-25.3v24.7zm48.2-10.9h-4.5l.4 6.2h-4.1V44h8.2V18.2h-8.2v-6.1h-4.6v6.1h-7.8v25.7h7.8v11.8h-7.8v4.7h21.4l-.8-10.8zm-8.2-26.4h3.6v16.1h-3.6V23.2zm-4.6 16.1h-3.2V23.2h3.2v16.1zm-128.2 6.5h8.8v6.6h5.2v-6.6h8.8v6.6h5.2V24h-9.2l.8-.5c2.4-1.4 4.7-2.9 6.8-4.6l.1-.1v-5.6h-30.8v4.9h24.2l-.7.5c-3.4 2.2-7 3.9-10.9 5.2l-.8.2-.8-3.4h-5.6l.8 3.4h-7v28.4h5.2l-.1-6.6zm14-17.3h8.8v4.4h-8.8v-4.4zm0 8.8h8.8v4.1h-8.8v-4.1zm-14-8.8h8.8v4.4h-8.8v-4.4zm0 8.8h8.8v4.1h-8.8v-4.1zM367 24.4l-2.1-11.1h-5.6l2.1 11.1h5.6zm2 26.2V32.9h-10.8v4.9h5.6V50c-.6 1.8-1.4 3.2-2.6 4.1-.8.6-1.7 1-2.8 1.3h-.2v5h.3c2.8-.5 5.1-1.6 6.8-3.2l.2-.2.2.2c2.3 2.9 6 3.2 8.6 3.2H409v-5h-32.5c-5.4 0-7.5-1.3-7.5-4.8m88.4-2.5h-5.6l-1.5 7.4h-7.8V43.3H463v-4.8h-20.5v-5.8h13.2v-4.6h-31.6v4.6h13.2v5.8h-20.5v4.8h20.5v12.3h-7.8l-1.5-7.4h-5.6l1.5 7.4H415v5h49.5v-5h-8.7l1.6-7.5zM342.3 18.7h8.2v-5.5h-48.2v5.5h9v14.8h-9.6V39h9.7s0 3-.1 4c-.3 7.7-6.6 11.8-8.8 12.3v5.6c.2 0 14.1-2.7 14.6-19.1 0-.6.1-2.8.1-2.8h19.3v21.5h5.8V39h8.9v-5.5h-8.9V18.7zm-5.8 14.8h-19.4V18.7h19.4v14.8zm103.1-16l.2-.2.2.1c5.7 5.2 16.3 10.1 24 11.6l.6.1v-5.6l-.4-.1c-7.5-1.7-16.6-6.3-21.7-11.4l-.1-.1h-5l-.1.1c-5.1 5.1-14.2 9.7-21.7 11.4l-.4.1v5.6l.6-.1c7.6-1.4 18.1-6.3 23.8-11.5"/><path class="st1" d="M257.9 11.4l-16.7 24.5 16.7 24.5H284v-49h-26.1zm-44.9 49h26.1v-49H213v49z"/><path class="st0" d="M569.6 14.4h-28.8V59h10.3V44.8h18.5c11.5 0 14-5.7 14-10.5v-9.4c0-4.8-2.4-10.5-14-10.5zm-18.5 9.1h17.5c4.6 0 4.6.8 4.6 2.9v6.4c0 2.1 0 2.9-4.6 2.9h-17.5V23.5zm123.8 27.2c-.1 0-.3-.2-.5-.6-3.8-6.7-7.5-13.3-11.3-20-2.6-4.6-5.3-9.3-7.9-13.9-.6-1-1.4-1.5-2.6-1.5h-12.9v44.2h9.3V23c.1.1.2.2.5.6 3.2 5.6 6.4 11.3 9.6 16.9 3.2 5.6 6.4 11.3 9.6 16.9.7 1.2 1.5 1.7 2.8 1.7h12.8V14.8H675l-.1 35.9zm-3.5 7.2zm68-20.3v-1.1c0-1.3-.1-2.5-.1-3.8-.1-2.9-.1-5.9-.4-8.8-.5-4.5-3.3-7.6-7.9-8.9-1.8-.5-3.7-.8-5.4-.8-5.4-.1-13.1-.1-18.5 0-8.4.2-13.3 4.2-13.5 11-.2 7.5-.2 15.2 0 22.9.2 6.4 5 10.6 12.3 10.8 3.3.1 8.9.2 12.1.2 3.1 0 6-.1 8.7-.2 6.7-.3 10.7-3.3 12-9 .3-1.1.4-2.3.4-3.5v-8.8h.3zm-36.2-2.2v-8.2c0-.6.1-1.4.3-2.2.2-1.3.8-2.1 2.9-2.5.9-.2 1.9-.2 2.8-.2h14.2c.8 0 1.6.1 2.6.2 2.4.3 3 1.2 3.2 2.8.2 1 .2 1.8.2 2.5v17.3c0 .9-.1 1.8-.3 2.9-.3 1.7-1.6 2.6-3.8 2.7-2.7.1-7.7.1-10.4.1-2.6 0-5.3 0-7.9-.1s-3.7-1.2-3.8-3.9c-.1-2.4 0-4.8 0-7.1v-4.3zm-69.3 21.5l-3.9-9.6c-4.2-10.3-8.3-20.7-12.5-31-.6-1.4-1.6-1.5-2.5-1.5-3.6 0-7.1.1-10.9 0-1.6 0-2.5.6-3 2-3.7 9.2-7.4 18.5-11.1 27.7l-5.9 14.6h10.2l1.2-2.9c.8-1.9 1.5-3.7 2.2-5.6.1-.2.1-.3.1-.3s.1-.1.5-.1h22c.5 0 .5 0 .7.4 1 2.7 1.9 4.8 2.8 6.8.3.7 1.2 1.5 2.1 1.5 1.2 0 2.3.1 3.5.1h5.1l-.5-1.7c0-.1 0-.2-.1-.4zm-16.3-15h-16.3l4.2-10.7c.9-2.3 1.8-4.5 2.7-6.8.5-1.4.5-1.4 1.4-1.4h.5l7.5 18.9z"/></svg>